{"title":"O.Negocio.S01E04.1080i.h264.HDTV.THoRCuATo.mkv","uid":8900285,"size":2365172284,"categoryP":"video","categoryS":"hd___tv_shows","magnet":"?xt=urn:btih:fdd85dfa84f195e05becee1ec1f3d1313aa99c6c&amp;dn=O.Negocio.S01E04.1080i.h264.HDTV.THoRCuATo.mkv&amp;tr=udp%3A%2F%2Ftracker.openbittorrent.com%3A80&amp;tr=udp%3A%2F%2Fopen.demonii.com%3A1337&amp;tr=udp%3A%2F%2Ftracker.coppersurfer.tk%3A6969&amp;tr=udp%3A%2F%2Fexodus.desync.com%3A6969","seeders":20,"leechers":0,"uploader":"pp654","files":1,"time":1378794406,"description":"O.Negocio.S01E04.1080i.h264.HDTV.THoRCuATo.mkv\nFormat                           : Matroska\nFile size                        : 2.20 GiB\nDuration                         : 51mn 1s\nOverall bit rate                 : 6 181 Kbps\nEncoded date                     : UTC 2013-09-10 01:19:53\nWriting application              : mkvmerge v6.3.0 ('You can't stop me!') built on Jun 28 2013 20:09:41\nWriting library                  : libebml v1.3.0 + libmatroska v1.4.0\n\nVideo\nID                               : 1\nFormat                           : AVC\nFormat/Info                      : Advanced Video Codec\nFormat profile                   : &lt;a class=&quot;__cf_email__&quot; href=&quot;/cdn-cgi/l/email-protection&quot; data-cfemail=&quot;c880a1afa08884fce6f8&quot;&gt;[email&amp;#160;protected]&lt;/a&gt;&lt;script cf-hash='f9e31' type=&quot;text/javascript&quot;&gt;\n/* &lt;![CDATA[ */!function(){try{var t=&quot;currentScript&quot;in document?document.currentScript:function(){for(var t=document.getElementsByTagName(&quot;script&quot;),e=t.length;e--;)if(t[e].getAttribute(&quot;cf-hash&quot;))return t[e]}();if(t&amp;&amp;t.previousSibling){var e,r,n,i,c=t.previousSibling,a=c.getAttribute(&quot;data-cfemail&quot;);if(a){for(e=&quot;&quot;,r=parseInt(a.substr(0,2),16),n=2;a.length-n;n+=2)i=parseInt(a.substr(n,2),16)^r,e+=String.fromCharCode(i);e=document.createTextNode(e),c.parentNode.replaceChild(e,c)}}}catch(u){}}();/* ]]&gt; */&lt;/script&gt;\nFormat settings, CABAC           : Yes\nFormat settings, ReFrames        : 4 frames\nMuxing mode                      : Container profile=&lt;a class=&quot;__cf_email__&quot; href=&quot;/cdn-cgi/l/email-protection&quot; data-cfemail=&quot;aaffc4c1c4c5ddc4ea9e849a&quot;&gt;[email&amp;#160;protected]&lt;/a&gt;&lt;script cf-hash='f9e31' type=&quot;text/javascript&quot;&gt;\n/* &lt;![CDATA[ */!function(){try{var t=&quot;currentScript&quot;in document?document.currentScript:function(){for(var t=document.getElementsByTagName(&quot;script&quot;),e=t.length;e--;)if(t[e].getAttribute(&quot;cf-hash&quot;))return t[e]}();if(t&amp;&amp;t.previousSibling){var e,r,n,i,c=t.previousSibling,a=c.getAttribute(&quot;data-cfemail&quot;);if(a){for(e=&quot;&quot;,r=parseInt(a.substr(0,2),16),n=2;a.length-n;n+=2)i=parseInt(a.substr(n,2),16)^r,e+=String.fromCharCode(i);e=document.createTextNode(e),c.parentNode.replaceChild(e,c)}}}catch(u){}}();/* ]]&gt; */&lt;/script&gt;\nCodec ID                         : V_MPEG4/ISO/AVC\nDuration                         : 51mn 1s\nBit rate                         : 5 674 Kbps\nWidth                            : 1 920 pixels\nHeight                           : 1 080 pixels\nDisplay aspect ratio             : 16:9\nFrame rate                       : 59.940 fps\nOriginal frame rate              : 29.970 fps\nColor space                      : YUV\nChroma subsampling               : 4:2:0\nBit depth                        : 8 bits\nScan type                        : Interlaced\nBits/(Pixel*Frame)               : 0.046\nStream size                      : 2.02 GiB (92%)\n\nAudio #1\nID                               : 2\nFormat                           : MPEG Audio\nFormat version                   : Version 1\nFormat profile                   : Layer 2\nCodec ID                         : A_MPEG/L2\nCodec ID/Hint                    : MP2\nDuration                         : 51mn 1s\nBit rate mode                    : Constant\nBit rate                         : 192 Kbps\nChannel(s)                       : 2 channels\nSampling rate                    : 48.0 KHz\nVideo delay                      : -48ms\nStream size                      : 70.1 MiB (3%)\n\nAudio #2\nID                               : 3\nFormat                           : MPEG Audio\nFormat version                   : Version 1\nFormat profile                   : Layer 2\nCodec ID                         : A_MPEG/L2\nCodec ID/Hint                    : MP2\nDuration                         : 51mn 1s\nBit rate mode                    : Constant\nBit rate                         : 192 Kbps\nChannel(s)                       : 2 channels\nSampling rate                    : 48.0 KHz\nVideo delay                      : -55ms\nStream size                      : 70.1 MiB (3%)\nLanguage                         : Spanish\n\n---------------------------------------------------------------------------------\nhelp us to improve\n\nbitcoin:1N8b7qcZT1zJVdANcunw7euJAeHykiNjF8","torrent":{"xt":"urn:btih:fdd85dfa84f195e05becee1ec1f3d1313aa99c6c","amp;dn":"O.Negocio.S01E04.1080i.h264.HDTV.THoRCuATo.mkv","amp;tr":["udp%3A%2F%2Ftracker.openbittorrent.com%3A80","udp%3A%2F%2Fopen.demonii.com%3A1337","udp%3A%2F%2Ftracker.coppersurfer.tk%3A6969","udp%3A%2F%2Fexodus.desync.com%3A6969"],"infoHash":"fdd85dfa84f195e05becee1ec1f3d1313aa99c6c","infoHashBuffer":{"type":"Buffer","data":[253,216,93,250,132,241,149,224,91,236,238,30,193,243,209,49,58,169,156,108]},"announce":[],"urlList":[]}}